<svg xmlns="http://www.w3.org/2000/svg" width="512" height="512"><path d="M472 96H368V75.82l10.97-4.39a8 8 0 000-14.86l-120-48a8.023 8.023 0 00-5.94 0l-120 48a8 8 0 000 14.86L168 85.42V96H40a32.03 32.03 0 00-32 32v272a32.03 32.03 0 0032 32h164.9l-10.67 32H168a8 8 0 00-8 8v24a8 8 0 008 8h176a8 8 0 008-8v-24a8 8 0 00-8-8h-26.23l-10.67-32H472a32.03 32.03 0 0032-32V128a32.03 32.03 0 00-32-32zM368 208a8 8 0 11-8-8 8.011 8.011 0 018 8zM157.54 64L256 24.62 354.46 64 256 103.38zM352 82.22V96h-8V85.42zm-24 9.6v78.7c-47.8 17.85-96.2 17.85-144 0v-78.7l69.03 27.61a8.023 8.023 0 005.94 0zM336 480v8H176v-8zm-124.9-16l10.67-32h68.46l10.67 32zM488 400a16.021 16.021 0 01-16 16H40a16.021 16.021 0 01-16-16v-16h464zm0-32H24V128a16.021 16.021 0 0116-16h128v64a8.006 8.006 0 005.03 7.43c27.53 11.01 55.25 16.51 82.97 16.51s55.44-5.5 82.97-16.51A8.006 8.006 0 00344 176v-64h8v72a8.451 8.451 0 00.12 1.34 24 24 0 1015.76 0A8.451 8.451 0 00368 184v-72h104a16.021 16.021 0 0116 16z"/><path d="M96 392H48a8 8 0 000 16h48a8 8 0 000-16zm32 0h-8a8 8 0 000 16h8a8 8 0 000-16zm-48-40h160a8 8 0 008-8v-96a8 8 0 00-8-8H80a8 8 0 00-8 8v96a8 8 0 008 8zm8-96h144v80H88zm-8-24h64a8 8 0 000-16H80a8 8 0 000 16zm0-24h24a8 8 0 000-16H80a8 8 0 000 16zm192 48h160a8 8 0 000-16H272a8 8 0 000 16zm0 24h160a8 8 0 000-16H272a8 8 0 000 16zm0 24h127a8 8 0 000-16H272a8 8 0 000 16zm160-16h-8a8 8 0 000 16h8a8 8 0 000-16zm-160 40h160a8 8 0 000-16H272a8 8 0 000 16zm0 24h127a8 8 0 000-16H272a8 8 0 000 16zm160-16h-8a8 8 0 000 16h8a8 8 0 000-16z"/></svg>