<svg height="512" width="512" xmlns="http://www.w3.org/2000/svg"><path d="M512 36h-58V5H65v80H53.5C24 85 0 109 0 138.5S24 192 53.5 192H65v98H53.5C24 290 0 314 0 343.5S24 397 53.5 397H65v56.718C65 483.098 88.902 507 118.282 507H454v-60h58zm-30 30v97h-28V66zm0 127v97h-28v-97zM53.5 162c-31.182-1.294-31.162-45.716 0-47H65v47zM95 115h41V85H95V35h329v382H95v-97h41v-30H95zM53.5 367c-31.182-1.294-31.162-45.716 0-47H65v47zm64.782 110C105.444 477 95 466.556 95 453.718V447h329v30zM454 417v-97h28v97z"/><path d="M340.979 283.779c-.192-27.648-15.448-53.969-39.131-68.141 33.512-35.75 7.644-95.798-41.858-95.638-49.499-.16-75.37 59.898-41.856 95.638-23.686 14.175-38.937 40.488-39.132 68.14l-.224 15.221h162.425zM232.99 177c0-14.888 12.112-27 27-27 35.819 1.483 35.809 52.522 0 54-14.887 0-27-12.112-27-27zm-21.408 92c15.923-46.429 80.913-46.398 96.817 0z"/></svg>