<svg xmlns="http://www.w3.org/2000/svg" viewBox="0 0 480 480"><linearGradient id="a" gradientUnits="userSpaceOnUse" x1="-36.875" y1="617.289" x2="-36.875" y2="554.985" gradientTransform="matrix(8 0 0 -8 399 4941)"><stop offset="0" stop-color="#fc5c7d"/><stop offset=".129" stop-color="#f35e85"/><stop offset=".343" stop-color="#d9659b"/><stop offset=".616" stop-color="#b070bf"/><stop offset=".934" stop-color="#777ff0"/><stop offset="1" stop-color="#6a82fb"/></linearGradient><path d="M96 32h16v16H96V32z" fill="url(#a)"/><linearGradient id="b" gradientUnits="userSpaceOnUse" x1="-32.875" y1="617.289" x2="-32.875" y2="554.985" gradientTransform="matrix(8 0 0 -8 399 4941)"><stop offset="0" stop-color="#fc5c7d"/><stop offset=".129" stop-color="#f35e85"/><stop offset=".343" stop-color="#d9659b"/><stop offset=".616" stop-color="#b070bf"/><stop offset=".934" stop-color="#777ff0"/><stop offset="1" stop-color="#6a82fb"/></linearGradient><path d="M128 32h16v16h-16V32z" fill="url(#b)"/><linearGradient id="c" gradientUnits="userSpaceOnUse" x1="-28.875" y1="617.289" x2="-28.875" y2="554.985" gradientTransform="matrix(8 0 0 -8 399 4941)"><stop offset="0" stop-color="#fc5c7d"/><stop offset=".129" stop-color="#f35e85"/><stop offset=".343" stop-color="#d9659b"/><stop offset=".616" stop-color="#b070bf"/><stop offset=".934" stop-color="#777ff0"/><stop offset="1" stop-color="#6a82fb"/></linearGradient><path d="M160 32h16v16h-16V32z" fill="url(#c)"/><linearGradient id="d" gradientUnits="userSpaceOnUse" x1="-19.875" y1="617.289" x2="-19.875" y2="554.985" gradientTransform="matrix(8 0 0 -8 399 4941)"><stop offset="0" stop-color="#fc5c7d"/><stop offset=".129" stop-color="#f35e85"/><stop offset=".343" stop-color="#d9659b"/><stop offset=".616" stop-color="#b070bf"/><stop offset=".934" stop-color="#777ff0"/><stop offset="1" stop-color="#6a82fb"/></linearGradient><path d="M24 440h40v8c0 17.673 14.327 32 32 32h336c17.673 0 32-14.327 32-32V32c0-17.673-14.327-32-32-32H96C78.327 0 64 14.327 64 32v144H24a8 8 0 00-8 8v144a8 8 0 008 8h40v24H24a8 8 0 00-8 8v64a8 8 0 008 8zm56-64h16v48H80v-48zm264 0v16H112v-16h232zm-232 32h232v16H112v-16zm248 11.056v-38.112L398.112 400 360 419.056zM96 16h336c8.837 0 16 7.163 16 16v32H80V32c0-8.837 7.163-16 16-16zM32 192h208v128H32V192zm216 144a8 8 0 008-8V184a8 8 0 00-8-8H80V80h368v368c0 8.837-7.163 16-16 16H96c-8.837 0-16-7.163-16-16v-8h272a7.99 7.99 0 003.576-.8l64-32a8 8 0 000-14.32l-64-32a7.916 7.916 0 00-3.32-.8c-.088 0-.168-.064-.256-.064H80V336h168zM32 376h32v48H32v-48z" fill="url(#d)"/><linearGradient id="e" gradientUnits="userSpaceOnUse" x1="-39.075" y1="617.289" x2="-39.075" y2="554.985" gradientTransform="matrix(8 0 0 -8 399 4941)"><stop offset="0" stop-color="#fc5c7d"/><stop offset=".129" stop-color="#f35e85"/><stop offset=".343" stop-color="#d9659b"/><stop offset=".616" stop-color="#b070bf"/><stop offset=".934" stop-color="#777ff0"/><stop offset="1" stop-color="#6a82fb"/></linearGradient><path d="M99.2 225.6l-32 24a8 8 0 000 12.8l32 24 9.6-12.8L85.336 256l23.464-17.6-9.6-12.8z" fill="url(#e)"/><linearGradient id="f" gradientUnits="userSpaceOnUse" x1="-26.675" y1="617.289" x2="-26.675" y2="554.985" gradientTransform="matrix(8 0 0 -8 399 4941)"><stop offset="0" stop-color="#fc5c7d"/><stop offset=".129" stop-color="#f35e85"/><stop offset=".343" stop-color="#d9659b"/><stop offset=".616" stop-color="#b070bf"/><stop offset=".934" stop-color="#777ff0"/><stop offset="1" stop-color="#6a82fb"/></linearGradient><path d="M172.8 225.6l-9.6 12.8 23.464 17.6-23.464 17.6 9.6 12.8 32-24a8 8 0 000-12.8l-32-24z" fill="url(#f)"/><linearGradient id="g" gradientUnits="userSpaceOnUse" x1="-23.456" y1="602.619" x2="-81.305" y2="579.479" gradientTransform="scale(8 -8) rotate(68.193 442.111 331.025)"><stop offset="0" stop-color="#fc5c7d"/><stop offset=".129" stop-color="#f35e85"/><stop offset=".343" stop-color="#d9659b"/><stop offset=".616" stop-color="#b070bf"/><stop offset=".934" stop-color="#777ff0"/><stop offset="1" stop-color="#6a82fb"/></linearGradient><path d="M112.566 293.013l32.007-79.994 14.862 5.947-32.007 79.994-14.862-5.947z" fill="url(#g)"/><linearGradient id="h" gradientUnits="userSpaceOnUse" x1="-27.375" y1="617.289" x2="-27.375" y2="554.985" gradientTransform="matrix(8 0 0 -8 399 4941)"><stop offset="0" stop-color="#fc5c7d"/><stop offset=".129" stop-color="#f35e85"/><stop offset=".343" stop-color="#d9659b"/><stop offset=".616" stop-color="#b070bf"/><stop offset=".934" stop-color="#777ff0"/><stop offset="1" stop-color="#6a82fb"/></linearGradient><path d="M104 136h152v16H104v-16z" fill="url(#h)"/><linearGradient id="i" gradientUnits="userSpaceOnUse" x1="-25.375" y1="617.289" x2="-25.375" y2="554.985" gradientTransform="matrix(8 0 0 -8 399 4941)"><stop offset="0" stop-color="#fc5c7d"/><stop offset=".129" stop-color="#f35e85"/><stop offset=".343" stop-color="#d9659b"/><stop offset=".616" stop-color="#b070bf"/><stop offset=".934" stop-color="#777ff0"/><stop offset="1" stop-color="#6a82fb"/></linearGradient><path d="M136 104h120v16H136v-16z" fill="url(#i)"/><linearGradient id="j" gradientUnits="userSpaceOnUse" x1="-35.875" y1="617.289" x2="-35.875" y2="554.985" gradientTransform="matrix(8 0 0 -8 399 4941)"><stop offset="0" stop-color="#fc5c7d"/><stop offset=".129" stop-color="#f35e85"/><stop offset=".343" stop-color="#d9659b"/><stop offset=".616" stop-color="#b070bf"/><stop offset=".934" stop-color="#777ff0"/><stop offset="1" stop-color="#6a82fb"/></linearGradient><path d="M104 104h16v16h-16v-16z" fill="url(#j)"/><linearGradient id="k" gradientUnits="userSpaceOnUse" x1="-4.375" y1="617.289" x2="-4.375" y2="554.985" gradientTransform="matrix(8 0 0 -8 399 4941)"><stop offset="0" stop-color="#fc5c7d"/><stop offset=".129" stop-color="#f35e85"/><stop offset=".343" stop-color="#d9659b"/><stop offset=".616" stop-color="#b070bf"/><stop offset=".934" stop-color="#777ff0"/><stop offset="1" stop-color="#6a82fb"/></linearGradient><path d="M304 320h120v16H304v-16z" fill="url(#k)"/><linearGradient id="l" gradientUnits="userSpaceOnUse" x1="-14.875" y1="617.289" x2="-14.875" y2="554.985" gradientTransform="matrix(8 0 0 -8 399 4941)"><stop offset="0" stop-color="#fc5c7d"/><stop offset=".129" stop-color="#f35e85"/><stop offset=".343" stop-color="#d9659b"/><stop offset=".616" stop-color="#b070bf"/><stop offset=".934" stop-color="#777ff0"/><stop offset="1" stop-color="#6a82fb"/></linearGradient><path d="M272 320h16v16h-16v-16z" fill="url(#l)"/><linearGradient id="m" gradientUnits="userSpaceOnUse" x1="-5.875" y1="617.289" x2="-5.875" y2="554.985" gradientTransform="matrix(8 0 0 -8 399 4941)"><stop offset="0" stop-color="#fc5c7d"/><stop offset=".129" stop-color="#f35e85"/><stop offset=".343" stop-color="#d9659b"/><stop offset=".616" stop-color="#b070bf"/><stop offset=".934" stop-color="#777ff0"/><stop offset="1" stop-color="#6a82fb"/></linearGradient><path d="M312 235.8V248h-16v16h16v24a8 8 0 008 8h64a8 8 0 008-8v-24h16v-16h-16v-12.2c33.063-22.091 41.958-66.803 19.867-99.867S345.063 93.976 312 116.067s-41.958 66.803-19.867 99.867A72.017 72.017 0 00312 235.8zm64 44.2h-48v-16h48v16zm-24-160c30.928.047 55.962 25.157 55.915 56.085A56 56 0 01380 224.448a8 8 0 00-4 6.92V248h-16v-44.688l21.656-21.656-11.312-11.312L352 188.688l-18.344-18.344-11.312 11.312L344 203.312V248h-16v-16.632a8 8 0 00-4-6.92c-26.757-15.511-35.874-49.776-20.363-76.533A56 56 0 01352 120z" fill="url(#m)"/></svg>