<svg viewBox="0 0 512 512" fill="none" xmlns="http://www.w3.org/2000/svg">
<g id="mouse-clicker 1" clip-path="url(#clip0)">
<path id="Vector" d="M255.602 0C172.559 0 105 67.5586 105 150.602V361.398C105 444.441 172.559 512 255.602 512C338.645 512 406.203 444.441 406.203 361.398V150.602C406.203 67.5586 338.645 0 255.602 0ZM375.484 361.398C375.484 427.5 321.703 481.281 255.602 481.281C189.5 481.281 135.719 427.5 135.719 361.398V150.602C135.719 84.5 189.5 30.7188 255.602 30.7188C321.703 30.7188 375.484 84.5 375.484 150.602V361.398Z" fill="black"/>
<g id="scroll">
<path id="Vector_2" d="M255.605 101.852C247.121 101.852 240.246 108.727 240.246 117.211V187.906C240.246 196.387 247.121 203.266 255.605 203.266C264.086 203.266 270.965 196.387 270.965 187.906V117.211C270.965 108.727 264.09 101.852 255.605 101.852Z" fill="black"/>
</g>
</g>
<defs>
<clipPath id="clip0">
<rect width="512" height="512" fill="white"/>
</clipPath>
</defs>
</svg>
