<svg viewBox="0 0 512 512" fill="none" xmlns="http://www.w3.org/2000/svg"><g clip-path="url(#clip0)" fill="#000"><path d="M255.602 0C172.559 0 105 67.559 105 150.602v210.796C105 444.441 172.559 512 255.602 512s150.601-67.559 150.601-150.602V150.602C406.203 67.559 338.645 0 255.602 0zm119.882 361.398c0 66.102-53.781 119.883-119.882 119.883-66.102 0-119.883-53.781-119.883-119.883V150.602c0-66.102 53.781-119.883 119.883-119.883 66.101 0 119.882 53.781 119.882 119.883v210.796z"/><path d="M255.605 101.852c-8.484 0-15.359 6.875-15.359 15.359v70.695c0 8.481 6.875 15.36 15.359 15.36 8.481 0 15.36-6.879 15.36-15.36v-70.695c0-8.484-6.875-15.359-15.36-15.359z"/></g><defs><clipPath id="clip0"><path fill="#fff" d="M0 0h512v512H0z"/></clipPath></defs></svg>