<svg xmlns="http://www.w3.org/2000/svg" viewBox="0 0 480 480"><linearGradient id="a" gradientUnits="userSpaceOnUse" x1="-16.375" y1="618.542" x2="-16.375" y2="554.145" gradientTransform="matrix(8 0 0 -8 455 4941)"><stop offset="0" stop-color="#fc5c7d"/><stop offset=".129" stop-color="#f35e85"/><stop offset=".343" stop-color="#d9659b"/><stop offset=".616" stop-color="#b070bf"/><stop offset=".934" stop-color="#777ff0"/><stop offset="1" stop-color="#6a82fb"/></linearGradient><path d="M216 72h216v16H216V72z" fill="url(#a)"/><linearGradient id="b" gradientUnits="userSpaceOnUse" x1="-21.375" y1="618.542" x2="-21.375" y2="554.145" gradientTransform="matrix(8 0 0 -8 455 4941)"><stop offset="0" stop-color="#fc5c7d"/><stop offset=".129" stop-color="#f35e85"/><stop offset=".343" stop-color="#d9659b"/><stop offset=".616" stop-color="#b070bf"/><stop offset=".934" stop-color="#777ff0"/><stop offset="1" stop-color="#6a82fb"/></linearGradient><path d="M216 104h136v16H216v-16z" fill="url(#b)"/><linearGradient id="c" gradientUnits="userSpaceOnUse" x1="-21.375" y1="618.542" x2="-21.375" y2="554.145" gradientTransform="matrix(8 0 0 -8 455 4941)"><stop offset="0" stop-color="#fc5c7d"/><stop offset=".129" stop-color="#f35e85"/><stop offset=".343" stop-color="#d9659b"/><stop offset=".616" stop-color="#b070bf"/><stop offset=".934" stop-color="#777ff0"/><stop offset="1" stop-color="#6a82fb"/></linearGradient><path d="M216 136h136v16H216v-16z" fill="url(#c)"/><linearGradient id="d" gradientUnits="userSpaceOnUse" x1="-12.375" y1="618.542" x2="-12.375" y2="554.145" gradientTransform="matrix(8 0 0 -8 455 4941)"><stop offset="0" stop-color="#fc5c7d"/><stop offset=".129" stop-color="#f35e85"/><stop offset=".343" stop-color="#d9659b"/><stop offset=".616" stop-color="#b070bf"/><stop offset=".934" stop-color="#777ff0"/><stop offset="1" stop-color="#6a82fb"/></linearGradient><path d="M280 40h152v16H280V40z" fill="url(#d)"/><linearGradient id="e" gradientUnits="userSpaceOnUse" x1="-24.875" y1="618.542" x2="-24.875" y2="554.145" gradientTransform="matrix(8 0 0 -8 455 4941)"><stop offset="0" stop-color="#fc5c7d"/><stop offset=".129" stop-color="#f35e85"/><stop offset=".343" stop-color="#d9659b"/><stop offset=".616" stop-color="#b070bf"/><stop offset=".934" stop-color="#777ff0"/><stop offset="1" stop-color="#6a82fb"/></linearGradient><path d="M248 40h16v16h-16V40z" fill="url(#e)"/><linearGradient id="f" gradientUnits="userSpaceOnUse" x1="-26.875" y1="618.542" x2="-26.875" y2="554.145" gradientTransform="matrix(8 0 0 -8 455 4941)"><stop offset="0" stop-color="#fc5c7d"/><stop offset=".129" stop-color="#f35e85"/><stop offset=".343" stop-color="#d9659b"/><stop offset=".616" stop-color="#b070bf"/><stop offset=".934" stop-color="#777ff0"/><stop offset="1" stop-color="#6a82fb"/></linearGradient><path d="M232 320h16v16h-16v-16z" fill="url(#f)"/><linearGradient id="g" gradientUnits="userSpaceOnUse" x1="-42.021" y1="618.542" x2="-42.021" y2="554.145" gradientTransform="matrix(8 0 0 -8 455 4941)"><stop offset="0" stop-color="#fc5c7d"/><stop offset=".129" stop-color="#f35e85"/><stop offset=".343" stop-color="#d9659b"/><stop offset=".616" stop-color="#b070bf"/><stop offset=".934" stop-color="#777ff0"/><stop offset="1" stop-color="#6a82fb"/></linearGradient><path d="M122.344 85.656l11.312-11.312L123.312 64l10.344-10.344-11.312-11.312-16 16a8 8 0 000 11.312l16 16z" fill="url(#g)"/><linearGradient id="h" gradientUnits="userSpaceOnUse" x1="-33.729" y1="618.542" x2="-33.729" y2="554.145" gradientTransform="matrix(8 0 0 -8 455 4941)"><stop offset="0" stop-color="#fc5c7d"/><stop offset=".129" stop-color="#f35e85"/><stop offset=".343" stop-color="#d9659b"/><stop offset=".616" stop-color="#b070bf"/><stop offset=".934" stop-color="#777ff0"/><stop offset="1" stop-color="#6a82fb"/></linearGradient><path d="M181.656 85.656l16-16a8 8 0 000-11.312l-16-16-11.312 11.312L180.688 64l-10.344 10.344 11.312 11.312z" fill="url(#h)"/><linearGradient id="i" gradientUnits="userSpaceOnUse" x1="-50.084" y1="618.513" x2="-111.174" y2="598.128" gradientTransform="scale(8 -8) rotate(71.547 413.039 357.656)"><stop offset="0" stop-color="#fc5c7d"/><stop offset=".129" stop-color="#f35e85"/><stop offset=".343" stop-color="#d9659b"/><stop offset=".616" stop-color="#b070bf"/><stop offset=".934" stop-color="#777ff0"/><stop offset="1" stop-color="#6a82fb"/></linearGradient><path d="M136.404 85.464l16.016-47.998 15.17 5.062-16.016 47.998-15.17-5.062z" fill="url(#i)"/><linearGradient id="j" gradientUnits="userSpaceOnUse" x1="-13.875" y1="618.542" x2="-13.875" y2="554.145" gradientTransform="matrix(8 0 0 -8 455 4941)"><stop offset="0" stop-color="#fc5c7d"/><stop offset=".129" stop-color="#f35e85"/><stop offset=".343" stop-color="#d9659b"/><stop offset=".616" stop-color="#b070bf"/><stop offset=".934" stop-color="#777ff0"/><stop offset="1" stop-color="#6a82fb"/></linearGradient><path d="M416 184h-16v64h-16v-80h-16v80h-16v-40h-16v40h-16v-48h-16v48h-16v-32h-16v32h-16v16h176v-16h-16v-64z" fill="url(#j)"/><linearGradient id="k" gradientUnits="userSpaceOnUse" x1="-26.875" y1="618.542" x2="-26.875" y2="554.145" gradientTransform="matrix(8 0 0 -8 455 4941)"><stop offset="0" stop-color="#fc5c7d"/><stop offset=".129" stop-color="#f35e85"/><stop offset=".343" stop-color="#d9659b"/><stop offset=".616" stop-color="#b070bf"/><stop offset=".934" stop-color="#777ff0"/><stop offset="1" stop-color="#6a82fb"/></linearGradient><path d="M8 296v24c.026 26.499 21.501 47.974 48 48h99.056l-32 64H80c-13.255 0-24 10.745-24 24s10.745 24 24 24h320c13.255 0 24-10.745 24-24s-10.745-24-24-24h-43.056l-32-64H424c26.499-.026 47.974-21.501 48-48V48c-.026-26.499-21.501-47.974-48-48H56C29.501.026 8.026 21.501 8 48v248zm161.6-88.664l7.576 23.288a8 8 0 004.6 4.944L208 246.2v18.88l-26.24 10.632a7.952 7.952 0 00-4.6 4.952l-2.4 7.336h-46.088c17.928-37.536 2.032-82.499-35.504-100.427A75.321 75.321 0 0024 189.768V112.56l18.184 21.648a8 8 0 006.128 2.856H72.8a8 8 0 006.128-2.856L97.12 112.56l17.952 5.832 1.984 28.184a8.001 8.001 0 003.272 5.912l19.816 14.4a8.046 8.046 0 006.64 1.288l27.464-6.824 11.104 15.272-14.968 24a7.999 7.999 0 00-.784 6.712zM24 288v-79.2c25.876-20.187 63.218-15.575 83.404 10.302C122.99 239.08 124.193 266.744 110.4 288H24zm384 168a8 8 0 01-8 8H80a8 8 0 010-16h320a8 8 0 018 8zm-68.944-24H140.944l32-64h134.112l32 64zM424 352H56c-17.673 0-32-14.327-32-32v-16h432v16c0 17.673-14.327 32-32 32zM56 16h368c17.673 0 32 14.327 32 32v240H194.04l24.968-10.12a8 8 0 004.992-7.408V240.8a8 8 0 00-4.992-7.416L191.2 222.136l-5.264-16.2 15.856-25.44a8 8 0 00-.32-8.928l-17.44-24a8 8 0 00-8.4-3.064l-29.088 7.2-13.744-9.984-2.104-29.84a8 8 0 00-5.512-7.048l-28.2-9.168a8.064 8.064 0 00-8.6 2.472l-19.256 22.92H52.064L32.8 98.136a8.063 8.063 0 00-8.608-2.472l-.192.072V48c0-17.673 14.327-32 32-32z" fill="url(#k)"/></svg>